<svg xmlns="http://www.w3.org/2000/svg" viewBox="0 0 196.63 256.45"><defs><style>.cls-1{fill:#0086ff;}</style></defs><g id="Layer_2" data-name="Layer 2"><g id="Layer_1-2" data-name="Layer 1"><g id="Symbol"><path class="cls-1" d="M128.3,256.45a68.43,68.43,0,0,1-67.86-60.28A68.51,68.51,0,0,1,0,128.23V38.49a38.57,38.57,0,0,1,77.13,0V178.73a51.34,51.34,0,0,0,42.52-50.5V38.49a38.49,38.49,0,0,1,77,0V188.12A68.4,68.4,0,0,1,128.3,256.45ZM77.73,196a51.18,51.18,0,0,0,101.74-7.88V38.49a21.33,21.33,0,0,0-42.66,0v89.74A68.52,68.52,0,0,1,77.73,196ZM38.64,17.16A21.39,21.39,0,0,0,17.16,38.49v89.74A51.33,51.33,0,0,0,60,178.78V38.49A21.36,21.36,0,0,0,38.64,17.16Z"/></g></g></g></svg>