<svg width="59" height="63" viewBox="0 0 59 63" fill="none" xmlns="http://www.w3.org/2000/svg">
<g filter="url(#filter0_d)">
<path d="M33.3384 25.6616C31.7237 24.0469 31.7237 21.4288 33.3384 19.8141C34.9532 18.1993 37.5712 18.1993 39.186 19.8141M39.1861 37.3569C40.8917 40.5243 41.8175 48.1748 31.8767 53.4376L26.6943 48.2552L31.0799 43.8696M22.1875 39.7365L16.2453 45.6787L14.7834 44.2167L13.3214 42.7548L19.2636 36.8126M21.6433 19.8141C19.1331 22.3243 16.9622 25.0454 15.1306 27.9203L10.7449 32.3059L5.5625 27.1235C10.8253 17.1827 18.4759 18.1086 21.6433 19.8141Z" stroke="#CC3E20" stroke-width="2"/>
<path d="M33.3382 25.6615C34.953 27.2763 37.5711 27.2764 39.1859 25.6617C40.8007 24.0469 40.8005 21.4287 39.1858 19.814M37.4718 9.32865C31.7107 11.6498 26.3122 15.1449 21.6431 19.814C19.1328 22.3242 16.9619 25.0452 15.1304 27.9201L19.2634 36.8125L22.1873 39.7364L31.0797 43.8694C33.9546 42.0379 36.6757 39.867 39.1859 37.3567C43.855 32.6877 47.3501 27.2892 49.6713 21.5281M37.4718 9.32865C42.4752 7.31279 47.7521 6.18241 53.0623 5.9375C52.8174 11.2476 51.6871 16.5247 49.6713 21.5281M37.4718 9.32865L49.6713 21.5281" stroke="#FAFAFA" stroke-width="2"/>
</g>
<defs>
<filter id="filter0_d" x="-2" y="0" width="65" height="65" filterUnits="userSpaceOnUse" color-interpolation-filters="sRGB">
<feFlood flood-opacity="0" result="BackgroundImageFix"/>
<feColorMatrix in="SourceAlpha" type="matrix" values="0 0 0 0 0 0 0 0 0 0 0 0 0 0 0 0 0 0 127 0"/>
<feOffset dy="4"/>
<feGaussianBlur stdDeviation="2"/>
<feColorMatrix type="matrix" values="0 0 0 0 0 0 0 0 0 0 0 0 0 0 0 0 0 0 0.25 0"/>
<feBlend mode="normal" in2="BackgroundImageFix" result="effect1_dropShadow"/>
<feBlend mode="normal" in="SourceGraphic" in2="effect1_dropShadow" result="shape"/>
</filter>
</defs>
</svg>
