<svg width="28" height="25" viewBox="0 0 28 25" fill="none" xmlns="http://www.w3.org/2000/svg">
<path d="M18.1838 3.27051H20.8663C22.5231 3.27051 23.8663 4.61365 23.8663 6.27051V8.37172M9.09189 3.27051H6.40942C4.75257 3.27051 3.40942 4.61365 3.40942 6.27051V8.37172M18.1838 21.6349H20.8663C22.5231 21.6349 23.8663 20.2917 23.8663 18.6349V16.5337M9.09189 21.6349H6.40942C4.75257 21.6349 3.40942 20.2917 3.40942 18.6349V16.5337" stroke="#D1D8DC" stroke-width="2" stroke-linecap="round" stroke-linejoin="round"/>
<path d="M9.09192 8.37207V10.4126M18.1839 8.37207V10.4126M13.6379 8.37207V13.4733H11.9332M10.2279 16.534C11.1777 17.1746 12.3584 17.5543 13.6379 17.5543C14.9174 17.5543 16.0981 17.1746 17.0479 16.534" stroke="#F5F5F5" stroke-width="2" stroke-linecap="round" stroke-linejoin="round"/>
</svg>
