<svg width="24" height="25" viewBox="0 0 24 25" fill="none" xmlns="http://www.w3.org/2000/svg">
<path d="M1 12.2548C1 15.6355 3.68629 18.3762 7 18.3762C9.61244 18.3762 11.8349 16.6728 12.6586 14.2952H17V18.3762H21V14.2952H23V10.2143H12.6586C11.8349 7.83671 9.61244 6.1333 7 6.1333C3.68629 6.1333 1 8.87397 1 12.2548Z" stroke="white" stroke-width="2"/>
<path d="M9 12.2548C9 13.3818 8.10457 14.2953 7 14.2953C5.89543 14.2953 5 13.3818 5 12.2548C5 11.1279 5.89543 10.2144 7 10.2144C8.10457 10.2144 9 11.1279 9 12.2548Z" stroke="white" stroke-width="2"/>
</svg>
