<svg width="67" height="67" viewBox="0 0 67 67" fill="none" xmlns="http://www.w3.org/2000/svg">
<mask id="path-1-inside-1" fill="white">
<path d="M11.1667 17.57C11.1667 17.0933 11.5031 16.6829 11.9706 16.5894L13.511 16.2813C20.7567 14.8322 27.4369 11.362 32.7839 6.28157C33.1842 5.90116 33.8158 5.90116 34.2162 6.28158C39.5631 11.362 46.2433 14.8322 53.489 16.2813L55.0295 16.5894C55.4969 16.6829 55.8334 17.0933 55.8334 17.57V30.0605C55.8334 44.869 47.067 58.273 33.5 64.2085C19.9331 58.273 11.1667 44.869 11.1667 30.0605V17.57Z"/>
</mask>
<path d="M33.5 64.2085L32.6984 66.0408L33.5 66.3915L34.3017 66.0408L33.5 64.2085ZM53.489 16.2813L53.8813 14.3201L53.8813 14.3201L53.489 16.2813ZM13.511 16.2813L13.1188 14.3201L13.1188 14.3201L13.511 16.2813ZM55.0295 16.5894L54.6372 18.5505L55.0295 16.5894ZM32.7839 6.28157L31.4063 4.83168L32.7839 6.28157ZM11.9706 16.5894L11.5783 14.6282L11.9706 16.5894ZM53.8334 17.57V30.0605H57.8334V17.57H53.8334ZM13.1667 30.0605V17.57H9.16669V30.0605H13.1667ZM9.16669 30.0605C9.16669 45.6636 18.4035 59.7868 32.6984 66.0408L34.3017 62.3762C21.4627 56.7591 13.1667 44.0744 13.1667 30.0605H9.16669ZM53.8334 30.0605C53.8334 44.0744 45.5373 56.7591 32.6984 62.3762L34.3017 66.0408C48.5966 59.7868 57.8334 45.6636 57.8334 30.0605H53.8334ZM12.3628 18.5505L13.9032 18.2425L13.1188 14.3201L11.5783 14.6282L12.3628 18.5505ZM53.0968 18.2425L54.6372 18.5505L55.4217 14.6282L53.8813 14.3201L53.0968 18.2425ZM32.8386 7.73147C38.4589 13.0716 45.4806 16.7192 53.0968 18.2425L53.8813 14.3201C47.006 12.9451 40.6673 9.65231 35.5938 4.83168L32.8386 7.73147ZM13.9032 18.2425C21.5194 16.7192 28.5411 13.0716 34.1615 7.73147L31.4063 4.83168C26.3327 9.65231 19.994 12.9451 13.1188 14.3201L13.9032 18.2425ZM57.8334 17.57C57.8334 16.1399 56.824 14.9087 55.4217 14.6282L54.6372 18.5505C54.1698 18.4571 53.8334 18.0466 53.8334 17.57H57.8334ZM35.5938 4.83168C34.4214 3.71779 32.5786 3.71779 31.4063 4.83168L34.1615 7.73147C33.7899 8.08453 33.2101 8.08453 32.8386 7.73147L35.5938 4.83168ZM13.1667 17.57C13.1667 18.0466 12.8302 18.4571 12.3628 18.5505L11.5783 14.6282C10.1761 14.9087 9.16669 16.1399 9.16669 17.57H13.1667Z" fill="#FAFAFA" mask="url(#path-1-inside-1)"/>
<path d="M22.3333 34.8957L30.7083 41.8748L46.0625 27.9165" stroke="#5AC462" stroke-width="2"/>
</svg>
