<svg xmlns="http://www.w3.org/2000/svg" viewBox="0 0 594.5 97.51"><defs><style>.cls-1{stroke:'white';fill:#1a1a1a;}</style></defs><g id="Layer_2" data-name="Layer 2"><g id="Layer_1-2" data-name="Layer 1"><g id="Logo"><g id="Text"><path class="cls-1" d="M44.17,97.51a44.5,44.5,0,0,1-22.17-6A42,42,0,0,1,5.89,75.8C2,68.82,0,60.58,0,51.3V1.6H15V51.3a33.33,33.33,0,0,0,4,16.6A27.7,27.7,0,0,0,29.61,78.32a29.09,29.09,0,0,0,14.56,3.87,28.37,28.37,0,0,0,14.34-3.88A27.83,27.83,0,0,0,69,67.91,33.29,33.29,0,0,0,73,51.3V1.6H87.89V51.3c0,9.94-1.9,18.22-5.66,24.63a43.25,43.25,0,0,1-16,15.62A43.76,43.76,0,0,1,44.17,97.51Z"/><path class="cls-1" d="M147.11,97.51C129.46,97.51,114,93,101,84.11l8.67-12.35c10.7,6.92,23.09,10.48,36.84,10.57,9.07-.3,15.58-1.56,20-3.83,4.71-2.44,7.16-5.89,7.28-10.25.34-4.24-2-7.77-7.06-10.4-4.61-2.41-11.54-4.06-21.17-5.07-16-1.7-26.72-4.91-32-9.55s-7.67-10.39-7.57-17.7c.18-7.78,3.82-13.77,11.12-18.28C124.59,2.63,133.9.19,144.81,0c12.25,0,24.55,3.48,36.53,10.33l-8.24,12c-8.57-4.66-18.53-7-29.63-7h-1a49.19,49.19,0,0,0-13.5,1.83c-6.59,1.88-7.77,5.65-7.6,8.48-.17,2.33.86,5.91,6.73,8.41,4.19,1.79,11,3.14,20.92,4.14,14.67,1.32,25,5,30.68,11s8.55,12.42,8.55,19.2c-.09,9-3.56,16-10.59,21.2S160.26,97.51,147.11,97.51Z"/><path class="cls-1" d="M204.53,95.76V1.6h58.16c7.37,0,13.31,2.27,18.17,7A22.91,22.91,0,0,1,288.05,26c0,9-3.08,15-9.43,18.43L275.52,46l3.21,1.46c9.51,4.3,14.13,10.93,14.13,20.27,0,8.89-2.74,15.61-8.37,20.56s-13,7.43-21.8,7.43Zm15-15h43.57a14.43,14.43,0,0,0,9.57-3.48,12.08,12.08,0,0,0,4.4-9.63,12.88,12.88,0,0,0-4.45-10.49,14.31,14.31,0,0,0-9.59-3.79h-43.5Zm0-42.41H263a9.69,9.69,0,0,0,6.74-2.88,11.3,11.3,0,0,0,3.39-8.13c-.35-3.57-1.54-6.2-3.56-8a9.52,9.52,0,0,0-6.55-2.64h-43.5Z"/><polygon class="cls-1" points="382.18 95.76 324.82 25.13 324.82 95.76 309.79 95.76 309.79 1.6 325.43 1.6 382.8 73 382.8 1.6 398.12 1.6 398.12 95.76 382.18 95.76"/><polygon class="cls-1" points="416.2 95.76 416.2 1.6 490.4 1.6 490.4 16.63 431.23 16.63 431.23 37.89 465.48 37.89 465.48 53.36 431.23 53.36 431.23 80.73 491.86 80.73 491.86 95.76 416.2 95.76"/><polygon class="cls-1" points="575.96 95.76 548.43 59.36 520.75 95.76 502.21 95.76 538.94 46.79 505.26 1.6 523.81 1.6 548.43 33.92 572.9 1.6 591.45 1.6 557.77 46.79 594.5 95.76 575.96 95.76"/></g></g></g></g></svg>
