<svg width="24" height="24" viewBox="0 0 24 24" fill="none" xmlns="http://www.w3.org/2000/svg">
<path d="M21 7.5C21.5 15 16 21 9 21C6.58809 21 4.17618 20.6768 2.28394 19.7706C1.85056 19.5631 2.01996 18.985 2.49941 18.9532C4.82949 18.7987 6.7577 18.2423 8 17C2.5836 15.1945 1.6493 8.4995 2.62229 5.00719C2.73653 4.59713 3.26966 4.59499 3.48455 4.96246C5.14603 7.80371 8.3052 9.39003 12.2646 9.02396C12.0933 8.54804 12 8.03492 12 7.5C12 5.01472 14.0147 3 16.5 3C18.0182 3 19.3608 3.75182 20.1758 4.90346L21.8929 4.65815C22.3208 4.59703 22.6194 5.07087 22.3797 5.43047L21 7.5Z" fill="white"/>
</svg>
